<svg version="1.1" id="LOGO" xmlns="http://www.w3.org/2000/svg" xmlns:xlink="http://www.w3.org/1999/xlink" x="0px" y="0px" viewBox="153 -153.3 415.6 417.3" style="enable-background:new 153 -153.3 415.6 417.3;" xml:space="preserve">
 <style type="text/css">
  .st0{fill:#0000DC;}
 </style>
 <path class="st0" d="M392.2,108.8h12.5v47.7h-12.5V108.8z M361.2,79.4c46,0,83.3-37.4,83.3-83.4c0-4.2-0.3-8.4-0.9-12.5h-77.9
	L340.4,8.8h44.2c-7,12.9-23.1,17.7-36,10.7c-4-2.2-7.3-5.3-9.8-9.1l-18.7,18.7c18.2,22.7,51.3,26.4,74,8.2
	c9-7.2,15.4-17.2,18.2-28.4h5.4c-7,31.3-38,50.9-69.3,43.9c-31.3-7-50.9-38-43.9-69.3c7-31.3,38-50.9,69.3-43.9
	c8.8,2,17.1,6,24.1,11.7l18-18c-34.7-30.2-87.3-26.6-117.5,8.1S271.8,28.7,306.5,59C321.6,72.2,341.1,79.4,361.2,79.4L361.2,79.4z
	 M284.5,118h-26.2l-12.7,12.7h25.8c-3.5,10.7-15,16.5-25.7,13.1c-10.7-3.5-16.5-15-13.1-25.7c3.5-10.7,15-16.5,25.7-13.1
	c3,1,5.8,2.7,8.1,4.9l9-9c-12.9-12.9-33.8-12.8-46.7,0.1s-12.8,33.8,0.1,46.7c12.9,12.9,33.8,12.8,46.7-0.1
	C283.3,139.9,286.7,128.7,284.5,118L284.5,118z M331.4,177.1c0,5.2-3.9,8.8-9.7,8.8h-9.3v12H308v-29.7h13.7
	C327.5,168.2,331.4,171.8,331.4,177.1L331.4,177.1z M326.9,177.1c0-3.1-2.2-5-5.7-5h-8.8v10.1h8.8
	C324.7,182.2,326.9,180.2,326.9,177.1L326.9,177.1z M291.1,181l-4.8-0.8c-3.8-0.6-5.3-1.8-5.3-4.2c0-2.6,2.6-4.4,6.4-4.4
	c3.6,0.1,7,1.4,9.7,3.6l2.5-3.4c-3.4-2.6-7.6-4-12-4c-6.6,0-10.9,3.4-10.9,8.5c0,4.3,2.7,6.8,8.1,7.7l5,0.8c4.3,0.7,6,2,6,4.7
	c0,2.9-2.9,5-7.2,5c-3.7,0-7-1.5-10.2-4.7l-2.7,3.1c3.4,3.4,7.9,5.3,12.7,5.3c7.1,0,11.8-3.6,11.8-9.1
	C300.2,184.6,297.3,182,291.1,181L291.1,181z M403.5,90.9c-2.8-2.7-7.3-2.7-10,0.1c-2.7,2.8-2.7,7.3,0.1,10c2.8,2.7,7.3,2.7,10-0.1
	c1.3-1.3,2-3.1,2-5C405.6,94.1,404.9,92.2,403.5,90.9L403.5,90.9z M361.2-30.5c5.1,0,10,1.5,14.3,4.2l18.7-18.7
	c-22.7-18.2-55.8-14.6-74,8.1c-10.3,12.8-14,29.7-10,45.7h27.7c-7-12.9-2.3-29.1,10.6-36.1C352.4-29.4,356.7-30.5,361.2-30.5
	L361.2-30.5z M443.8,141.8c-1.1,1.5-2.5,2.7-4.2,3.5c-1.8,0.8-3.7,1.3-5.7,1.2c-2.7,0.1-5.3-0.9-7.2-2.7c-1.9-2-2.8-4.6-2.7-7.3
	v-27.7h-12.5v29.6c-0.2,5.1,1.7,10,5.3,13.7c3.6,3.6,8.5,5.5,13.5,5.4c2.5,0,5-0.4,7.3-1.2c2.2-0.8,4.3-2,6.1-3.5v3.8h12.5v-47.7
	h-12.5L443.8,141.8z M445.1,181l-4.8-0.8c-3.8-0.6-5.3-1.8-5.3-4.2c0-2.6,2.6-4.4,6.4-4.4c3.6,0.1,7,1.4,9.7,3.6l2.5-3.4
	c-3.4-2.6-7.6-4-12-4c-6.6,0-10.9,3.4-10.9,8.5c0,4.3,2.7,6.8,8.1,7.7l5,0.8c4.3,0.7,6,2,6,4.7c0,2.9-2.9,5-7.2,5
	c-3.7,0-7-1.5-10.2-4.7l-2.7,3.1c3.4,3.4,7.9,5.3,12.7,5.3c7.1,0,11.8-3.6,11.8-9.1C454.2,184.6,451.4,182,445.1,181L445.1,181z
	 M498.7,132.6c-2.5-2.4-6.1-3.9-10.8-4.6l-9.2-1.4c-1.8-0.1-3.5-0.6-5-1.5c-1-0.7-1.6-1.8-1.5-3c0-1.4,0.8-2.7,2.1-3.4
	c1.7-0.9,3.5-1.4,5.4-1.3c2.5,0,4.9,0.4,7.2,1.1c2.6,0.9,5.1,2,7.5,3.4l6-8.1c-2.9-1.9-6.1-3.4-9.4-4.4c-3.3-1-6.7-1.5-10.2-1.5
	c-6,0-10.9,1.4-14.5,4.1c-3.5,2.5-5.5,6.7-5.4,11c-0.2,3.5,1.2,6.8,3.7,9.2c2.5,2.3,6.1,3.8,10.8,4.6l9.2,1.4
	c1.6,0.1,3.2,0.7,4.5,1.6c0.9,0.7,1.5,1.8,1.4,2.9c-0.1,1.6-1,3-2.5,3.7c-2.1,1-4.4,1.5-6.7,1.4c-2.6,0-5.1-0.5-7.5-1.3
	c-2.8-1-5.5-2.4-8-4.1l-6.2,8.3c2.9,2.2,6.2,3.9,9.7,4.9c4,1.2,8.1,1.7,12.2,1.7c2.8,0,5.6-0.4,8.3-1.2c2.4-0.7,4.6-1.8,6.6-3.3
	c1.8-1.3,3.3-3,4.3-5c1.1-1.9,1.6-4.1,1.6-6.3C502.6,138.2,501.3,134.9,498.7,132.6L498.7,132.6z M325.2,143l8.2,7.5
	c-5.4,4.6-12.3,7-19.3,6.9c-3.5,0-6.9-0.6-10.1-1.9c-3-1.2-5.8-3-8.1-5.2c-2.3-2.2-4.1-4.9-5.4-7.8c-1.3-3.1-2-6.4-2-9.7
	c0-3.3,0.6-6.6,1.9-9.7c1.2-2.9,3-5.6,5.2-7.9c2.2-2.3,4.9-4,7.8-5.3c3.1-1.3,6.3-1.9,9.7-1.9c3.2,0,6.4,0.6,9.4,2
	c2.8,1.3,5.4,3.1,7.5,5.4c2.2,2.4,3.8,5.1,4.9,8.1c1.2,3.3,1.8,6.7,1.8,10.2v3.3h-35.5c0.8,2.9,2.5,5.4,4.9,7.2
	c2.5,1.8,5.5,2.8,8.6,2.7c2,0,4-0.3,5.9-1C322.3,145.2,323.9,144.3,325.2,143z M301.1,127.9h23.3c-0.7-2.7-2.2-5.1-4.3-6.9
	c-2-1.8-4.6-2.7-7.3-2.7c-2.7-0.1-5.3,0.9-7.4,2.6C303.2,122.7,301.7,125.2,301.1,127.9z M401,172.2h10.4v25.7h4.5v-25.7h10.4v-3.9
	H401V172.2z M366.5,183.1c0.1,8.5-6.8,15.5-15.3,15.6c-8.5,0.1-15.5-6.8-15.6-15.3c-0.1-8.5,6.8-15.5,15.3-15.6c0,0,0.1,0,0.1,0
	c8.4-0.1,15.4,6.6,15.5,15C366.5,182.9,366.5,183,366.5,183.1z M361.9,183.1c-0.2-6-5.2-10.8-11.2-10.6c-6,0.2-10.8,5.2-10.6,11.2
	c0.1,5.9,5,10.6,10.9,10.7c6,0,10.9-4.8,10.9-10.8C361.9,183.3,361.9,183.2,361.9,183.1z M373,156.5h12.5v-29.7
	c0.4-10-7.3-18.5-17.4-18.9c-0.5,0-1,0-1.5,0c-2.5,0-4.9,0.4-7.3,1.2c-2.2,0.8-4.3,2-6.1,3.5v-3.8h-12.5v47.7h12.5v-33
	c1.1-1.5,2.5-2.7,4.2-3.5c1.8-0.8,3.7-1.3,5.6-1.2c2.7-0.1,5.3,0.9,7.2,2.7c1.8,1.9,2.8,4.6,2.7,7.2L373,156.5z M390.1,185.2
	l6.6,12.8h-4.9l-6.2-12.2h-8.4v12.2h-4.5v-29.7h13.5c5.9,0,9.9,3.6,9.9,8.8C396.2,180.8,393.7,184.1,390.1,185.2L390.1,185.2z
	 M385.9,182.1c3.5,0,5.8-2,5.8-5c0-3-2.3-5-5.8-5h-8.7v9.9H385.9z">
 </path>
</svg>