<svg version="1.1" id="LOGO" xmlns="http://www.w3.org/2000/svg" xmlns:xlink="http://www.w3.org/1999/xlink" x="0px" y="0px" viewBox="277.9 -87.2 166.6 166.6" style="enable-background:new 277.9 -87.2 166.6 166.6;" xml:space="preserve">
 <style type="text/css">
  .st0{fill:#0000DC;}
 </style>
 <path class="st0" d="M361.2,79.4c46,0,83.3-37.4,83.3-83.4c0-4.2-0.3-8.4-0.9-12.5h-77.9L340.4,8.8h44.2c-7,12.9-23.1,17.7-36,10.7
	c-4-2.2-7.3-5.3-9.8-9.1l-18.7,18.7c18.2,22.7,51.3,26.4,74,8.2c9-7.2,15.4-17.2,18.2-28.4h5.4c-7,31.3-38,50.9-69.3,43.9
	c-31.3-7-50.9-38-43.9-69.3s38-50.9,69.3-43.9c8.8,2,17.1,6,24.1,11.7l18-18c-34.7-30.2-87.3-26.6-117.5,8.1S271.8,28.7,306.5,59
	C321.6,72.2,341.1,79.4,361.2,79.4L361.2,79.4z M361.2-30.5c5.1,0,10,1.5,14.3,4.2l18.7-18.7c-22.7-18.2-55.8-14.6-74,8.1
	c-10.3,12.8-14,29.7-10,45.7h27.7c-7-12.9-2.3-29.1,10.6-36.1C352.4-29.4,356.7-30.5,361.2-30.5L361.2-30.5z">
 </path>
</svg>